# xmcd
#
# Track frame offsets: 
#        150
#        23667
#        39530
#        62272
#        76367
#        94475
#        112352
#        133902
#        156705
#        175362
#        193220
#        211547
#        222047
#        240030
#
# Disc length: 3419 seconds
#
# Revision: 1
# Processed by: cddbd v1.5.2PL0 Copyright (c) Steve Scherf et al.
# Submitted via: ExactAudioCopyFreeDBPlugin 1.0
#
DISCID=c30d590e
DTITLE=Baker, Parnell, and Lusher - Best of British Vol 1
DYEAR=1995
DGENRE=Jazz
TTITLE0=Battle Hymn of the Republic
TTITLE1=When you're smiling
TTITLE2=Baker's Bounce
TTITLE3=When your lover has gone
TTITLE4=Whispering - Groovin' high
TTITLE5=Big noise from Winnetka
TTITLE6=Mood Indigo
TTITLE7=Pick yourself up
TTITLE8=Pennies from Heaven
TTITLE9=Seven come eleven
TTITLE10=When it's sleepy time down South
TTITLE11=Trouble with you is me
TTITLE12=Flintstones theme
TTITLE13=Baker's Blues
EXTD=YEAR: 1995
EXTT0=
EXTT1=
EXTT2=
EXTT3=
EXTT4=
EXTT5=
EXTT6=
EXTT7=
EXTT8=
EXTT9=
EXTT10=
EXTT11=
EXTT12=
EXTT13=
PLAYORDER=
